<svg xmlns="http://www.w3.org/2000/svg" version="1.1" viewBox="0.6 16.8 234.8 58.7">
  <g>
    <g id="Layer_1">
      <g>
        <polygon fill="#007669"
                 points="224.9 24.2 224.9 23.4 235.4 19.8 235.4 16.8 221.4 21.6 221.4 75.2 235.4 75.2 235.4 24.2 224.9 24.2"/>
        <path fill="#007669"
              d="M213.9,61.8h-8.5v-1.1l6.2-2.7c5.8-2.9,9.8-9,9.8-15.9,0-9.9-8-17.8-17.8-17.8h-63.7v13.5h12.4v37.6h14.7v-34.3l-5.6-1.9v-1.3h18v37.6h14v-9.2l4.9-2.2,6.3,11.4h16.8l-7.5-13.4ZM203.3,47l-9,3.9h-1.1v-13.2h7.8c2.7,0,4.9,2.2,4.9,4.9s-1.1,3.5-2.7,4.4Z"/>
        <path fill="#007669"
              d="M22.6,24.2H.6v51h13.7l19.8-12.5c5.7-3.8,9.4-10.2,9.4-17.5,0-11.6-9.4-21-21-21ZM13.9,37.7h7.6c4.2,0,7.6,3.4,7.6,7.6s-1.4,5.1-3.6,6.5c0,0,0,0,0,0l-10,6.3h-1.5v-20.4Z"/>
        <path fill="#007669"
              d="M119.9,24.2v24.7h-1.1l-15.3-24.7h-14.8v51h15v-25.2h1.1l15.7,25.2h7.6c3.8,0,6.9-3.1,6.9-6.9V24.2h-15Z"/>
        <path fill="#007669"
              d="M74.3,22.6l-9.8-4.6h-4.3l-9.8,4.6-14.3,52.7h15.7l2.2-8.4-6.7-2.4v-1.2h30.1v1.2l-6.7,2.4,2.2,8.4h15.7l-14.3-52.7ZM62.4,20.1l7.6,3.6v.5h-15.1v-.5l7.6-3.6ZM57.7,52.7l4-15.6h1.3l4,15.6h-9.3Z"/>
      </g>
    </g>
  </g>
</svg>